<svg xmlns="http://www.w3.org/2000/svg" xmlns:xlink="http://www.w3.org/1999/xlink" width="40" zoomAndPan="magnify" viewBox="0 0 30 30.000001" height="40" preserveAspectRatio="xMidYMid meet" version="1.0"><defs><clipPath id="f11694f4d2"><path d="M 0.484375 0 L 29.515625 0 L 29.515625 29 L 0.484375 29 Z M 0.484375 0 " clip-rule="nonzero"/></clipPath></defs><g clip-path="url(#f11694f4d2)"><path fill="#0cc0df" d="M 25.367188 14.023438 C 25.25 14.011719 25.128906 14 25.011719 13.988281 C 25.0625 14.03125 25.117188 14.0625 25.167969 14.101562 C 25.664062 14.5 26.0625 15.011719 26.378906 15.558594 C 26.707031 16.097656 26.855469 16.722656 26.964844 17.324219 C 26.992188 17.496094 26.875 17.664062 26.695312 17.695312 C 26.53125 17.722656 26.367188 17.625 26.328125 17.472656 L 26.3125 17.433594 C 26.164062 16.910156 26 16.402344 25.675781 15.976562 C 25.367188 15.546875 25.003906 15.160156 24.558594 14.863281 C 24.117188 14.554688 23.632812 14.316406 23.117188 14.128906 L 23.105469 14.121094 C 22.472656 13.894531 21.757812 14.160156 21.460938 14.753906 C 21.125 15.421875 20.929688 16.132812 20.851562 16.863281 C 20.726562 17.941406 21.085938 19.023438 21.816406 19.832031 C 22.460938 20.546875 23.304688 21.429688 23.925781 21.886719 C 24.507812 22.304688 25.125 22.671875 25.78125 22.917969 C 26.441406 23.164062 27.136719 23.285156 27.800781 23.15625 C 27.992188 23.125 28.160156 23.234375 28.195312 23.40625 C 28.226562 23.574219 28.121094 23.734375 27.964844 23.78125 C 27.140625 24 26.289062 23.910156 25.523438 23.683594 C 24.75 23.453125 24.03125 23.097656 23.367188 22.6875 C 23.273438 22.628906 23.195312 22.5625 23.105469 22.503906 C 23.242188 22.921875 23.347656 23.347656 23.402344 23.785156 C 23.484375 24.527344 23.425781 25.28125 23.222656 25.980469 C 23.171875 26.15625 22.992188 26.253906 22.816406 26.207031 C 22.652344 26.15625 22.554688 25.988281 22.585938 25.828125 C 22.863281 24.546875 22.546875 23.230469 21.894531 22.097656 C 21.625 21.621094 21.304688 21.175781 20.949219 20.746094 L 20.933594 20.734375 C 20.105469 19.914062 18.921875 19.515625 17.757812 19.695312 C 16.957031 19.820312 16.175781 20.058594 15.492188 20.410156 C 14.742188 20.804688 14.320312 21.636719 14.457031 22.453125 C 14.464844 22.492188 14.472656 22.523438 14.476562 22.554688 C 14.609375 23.070312 14.8125 23.546875 15.101562 23.953125 C 15.398438 24.359375 15.792969 24.660156 16.304688 24.964844 C 16.554688 25.113281 16.839844 25.292969 17.082031 25.53125 C 17.34375 25.769531 17.503906 26.097656 17.613281 26.414062 C 17.671875 26.582031 17.589844 26.769531 17.410156 26.828125 C 17.246094 26.878906 17.066406 26.800781 17.003906 26.640625 L 16.988281 26.621094 C 16.804688 26.164062 16.4375 25.910156 15.898438 25.660156 C 15.378906 25.414062 14.773438 25.0625 14.339844 24.558594 C 14.203125 24.40625 14.078125 24.238281 13.964844 24.0625 C 13.945312 24.101562 13.929688 24.148438 13.910156 24.1875 C 13.726562 24.527344 13.542969 24.773438 13.472656 24.992188 C 13.308594 25.449219 13.492188 25.957031 13.828125 26.554688 C 13.976562 26.859375 14.140625 27.199219 14.226562 27.574219 C 14.304688 27.953125 14.285156 28.351562 14.203125 28.714844 C 14.164062 28.886719 13.984375 28.996094 13.8125 28.949219 C 13.640625 28.917969 13.53125 28.75 13.558594 28.585938 C 13.664062 27.992188 13.472656 27.488281 13.117188 26.933594 C 12.945312 26.65625 12.742188 26.355469 12.617188 25.96875 C 12.484375 25.597656 12.4375 25.164062 12.542969 24.738281 C 12.578125 24.609375 12.621094 24.492188 12.667969 24.382812 C 12.511719 24.5 12.351562 24.597656 12.195312 24.679688 C 11.890625 24.855469 11.578125 24.988281 11.292969 25.125 C 11.078125 25.210938 10.886719 25.355469 10.730469 25.5625 C 10.40625 25.96875 10.222656 26.566406 10.164062 27.121094 L 10.164062 27.15625 C 10.144531 27.328125 9.984375 27.464844 9.800781 27.445312 C 9.636719 27.425781 9.511719 27.289062 9.507812 27.121094 C 9.507812 26.425781 9.613281 25.746094 10 25.085938 C 10.195312 24.765625 10.484375 24.460938 10.847656 24.261719 C 11.136719 24.109375 11.40625 23.964844 11.648438 23.804688 C 12.136719 23.488281 12.492188 23.117188 12.679688 22.640625 C 12.695312 22.601562 12.707031 22.5625 12.722656 22.519531 C 12.957031 21.609375 12.570312 20.65625 11.820312 20.078125 C 11.503906 19.828125 11.175781 19.59375 10.964844 19.492188 C 10.925781 19.472656 10.851562 19.445312 10.761719 19.421875 C 9.628906 19.097656 8.414062 19.21875 7.355469 19.742188 C 7.261719 19.789062 7.210938 19.8125 7.203125 19.8125 C 6.683594 20.078125 6.179688 20.394531 5.804688 20.773438 C 5.621094 20.960938 5.46875 21.160156 5.382812 21.359375 C 5.34375 21.46875 5.332031 21.546875 5.316406 21.667969 C 5.296875 21.859375 5.265625 22.046875 5.207031 22.230469 C 4.949219 22.957031 4.402344 23.445312 3.757812 23.753906 C 3.601562 23.839844 3.402344 23.773438 3.324219 23.613281 C 3.246094 23.464844 3.296875 23.285156 3.4375 23.199219 L 3.46875 23.183594 C 3.910156 22.910156 4.292969 22.453125 4.378906 22.003906 C 4.402344 21.886719 4.402344 21.769531 4.402344 21.65625 C 4.402344 21.476562 4.421875 21.25 4.480469 21.070312 C 4.601562 20.6875 4.8125 20.378906 5.035156 20.109375 C 5.171875 19.949219 5.316406 19.808594 5.460938 19.671875 C 5.046875 19.539062 4.667969 19.355469 4.335938 19.207031 C 3.71875 18.9375 3.1875 18.828125 2.621094 19.105469 C 2.050781 19.34375 1.554688 19.851562 1.0625 20.328125 L 1.042969 20.347656 C 0.910156 20.476562 0.707031 20.476562 0.578125 20.347656 C 0.457031 20.226562 0.453125 20.035156 0.5625 19.910156 C 1.054688 19.363281 1.515625 18.769531 2.253906 18.386719 C 2.4375 18.289062 2.648438 18.222656 2.84375 18.144531 C 3.054688 18.113281 3.277344 18.054688 3.496094 18.070312 C 3.941406 18.070312 4.34375 18.191406 4.699219 18.3125 C 5.414062 18.570312 6 18.789062 6.574219 18.738281 C 6.671875 18.730469 6.777344 18.707031 6.875 18.6875 L 6.890625 18.679688 C 7.207031 18.5 7.46875 18.253906 7.660156 17.960938 C 7.851562 17.664062 7.960938 17.328125 7.980469 16.96875 C 8.035156 16.15625 7.894531 15.371094 7.578125 14.625 C 7.355469 14.09375 7 13.722656 6.5625 13.398438 C 6.554688 13.398438 6.554688 13.398438 6.554688 13.398438 C 6.460938 13.328125 6.363281 13.257812 6.257812 13.195312 C 6.257812 13.195312 5.660156 12.808594 5.191406 12.582031 C 4.9375 12.484375 4.6875 12.390625 4.429688 12.304688 C 3.882812 12.132812 3.34375 12.023438 2.84375 12.113281 C 2.339844 12.1875 1.824219 12.472656 1.304688 12.769531 C 1.148438 12.863281 0.945312 12.8125 0.851562 12.660156 C 0.765625 12.519531 0.804688 12.332031 0.945312 12.234375 C 1.445312 11.886719 1.976562 11.5 2.667969 11.324219 C 3.09375 11.210938 3.515625 11.210938 3.929688 11.253906 C 3.554688 10.734375 3.246094 10.191406 2.945312 9.683594 C 2.773438 9.394531 2.597656 9.136719 2.40625 8.910156 C 2.199219 8.710938 1.996094 8.582031 1.746094 8.554688 L 1.714844 8.554688 C 1.539062 8.535156 1.40625 8.375 1.425781 8.195312 C 1.445312 8.035156 1.582031 7.910156 1.746094 7.910156 C 2.207031 7.90625 2.628906 8.132812 2.925781 8.402344 C 3.207031 8.671875 3.4375 8.960938 3.632812 9.246094 C 4.042969 9.816406 4.402344 10.367188 4.839844 10.84375 C 5.128906 11.164062 5.449219 11.441406 5.792969 11.671875 C 5.898438 11.707031 5.996094 11.738281 6.101562 11.769531 C 6.804688 12 7.585938 11.960938 8.246094 11.621094 C 8.269531 11.609375 8.296875 11.59375 8.324219 11.582031 C 9.828125 10.789062 10.820312 9.792969 11.316406 8.515625 C 11.394531 8.3125 11.460938 8.105469 11.511719 7.886719 C 11.519531 7.363281 11.28125 6.867188 10.863281 6.558594 C 10.65625 6.410156 10.429688 6.289062 10.191406 6.167969 C 9.988281 6.058594 9.847656 6.003906 9.636719 5.890625 C 9.222656 5.671875 8.84375 5.378906 8.511719 5.085938 C 8.191406 4.78125 7.914062 4.484375 7.613281 4.246094 C 7.316406 4.003906 6.988281 3.816406 6.621094 3.667969 C 6.449219 3.597656 6.371094 3.402344 6.441406 3.242188 C 6.507812 3.089844 6.671875 3.011719 6.832031 3.054688 C 7.265625 3.164062 7.699219 3.347656 8.09375 3.589844 C 8.480469 3.828125 8.816406 4.113281 9.144531 4.335938 C 9.613281 4.679688 10.113281 4.890625 10.652344 5.039062 C 10.382812 4.613281 10.015625 4.203125 9.640625 3.75 C 9.25 3.289062 8.871094 2.773438 8.613281 2.179688 C 8.351562 1.585938 8.246094 0.9375 8.265625 0.3125 C 8.273438 0.132812 8.425781 -0.00390625 8.609375 0.00390625 C 8.777344 0.00390625 8.910156 0.136719 8.925781 0.300781 C 8.964844 0.855469 9.101562 1.367188 9.359375 1.832031 C 9.605469 2.296875 9.96875 2.703125 10.375 3.109375 C 10.71875 3.457031 11.101562 3.808594 11.457031 4.230469 C 11.574219 3.953125 11.691406 3.6875 11.789062 3.449219 C 11.929688 3.128906 11.996094 2.863281 11.933594 2.59375 C 11.882812 2.316406 11.699219 2.027344 11.476562 1.761719 C 11.351562 1.609375 11.371094 1.40625 11.507812 1.292969 C 11.632812 1.1875 11.816406 1.195312 11.941406 1.304688 C 12.246094 1.582031 12.558594 1.910156 12.726562 2.367188 C 12.910156 2.832031 12.84375 3.347656 12.738281 3.738281 C 12.625 4.152344 12.507812 4.5 12.433594 4.835938 C 12.363281 5.167969 12.179688 5.464844 12.34375 6.246094 L 12.410156 6.445312 C 12.546875 6.84375 12.835938 7.179688 13.210938 7.378906 C 14.375 8.007812 15.519531 8.273438 16.945312 8.015625 C 17.792969 7.867188 18.570312 7.4375 19.140625 6.796875 C 19.292969 6.632812 19.445312 6.453125 19.582031 6.269531 C 19.996094 5.699219 20.351562 5.074219 20.660156 4.421875 C 20.96875 3.773438 21.21875 3.089844 21.445312 2.394531 C 21.652344 1.703125 21.839844 0.984375 21.957031 0.273438 C 21.988281 0.0898438 22.160156 -0.0273438 22.339844 0.00390625 C 22.507812 0.03125 22.628906 0.183594 22.613281 0.351562 C 22.535156 1.117188 22.402344 1.859375 22.234375 2.601562 C 22.074219 3.289062 21.871094 3.972656 21.628906 4.640625 C 21.820312 4.609375 22.015625 4.558594 22.199219 4.5 C 22.613281 4.378906 23.007812 4.195312 23.378906 3.964844 C 23.738281 3.734375 24.082031 3.457031 24.355469 3.121094 C 24.660156 2.800781 24.882812 2.414062 25.09375 2.019531 L 25.101562 2 C 25.1875 1.839844 25.382812 1.78125 25.546875 1.867188 C 25.691406 1.9375 25.757812 2.109375 25.699219 2.257812 C 25.519531 2.722656 25.316406 3.191406 25.015625 3.613281 C 24.605469 4.222656 24.035156 4.738281 23.402344 5.136719 C 23.140625 5.3125 22.859375 5.453125 22.570312 5.574219 C 22.089844 5.777344 21.628906 5.921875 21.050781 6 C 20.878906 6.304688 20.71875 6.597656 20.542969 6.894531 C 20.457031 7.019531 20.371094 7.148438 20.28125 7.269531 C 19.761719 7.996094 19.570312 8.929688 19.800781 9.789062 C 19.992188 10.503906 20.347656 11.113281 20.839844 11.640625 C 21.339844 12.175781 22.042969 12.472656 22.78125 12.574219 C 22.78125 12.574219 22.785156 12.574219 22.792969 12.574219 C 23.023438 12.589844 23.257812 12.59375 23.484375 12.582031 C 24.054688 12.554688 24.613281 12.445312 25.074219 12.214844 C 25.304688 12.097656 25.5 11.945312 25.660156 11.765625 C 25.738281 11.671875 25.8125 11.578125 25.863281 11.46875 C 25.921875 11.371094 26.023438 11.171875 26.113281 11.035156 C 26.507812 10.449219 27.054688 9.96875 27.796875 9.753906 C 27.972656 9.703125 28.152344 9.800781 28.203125 9.96875 C 28.25 10.128906 28.171875 10.289062 28.019531 10.351562 L 27.972656 10.371094 C 27.527344 10.566406 27.105469 10.996094 26.890625 11.46875 C 26.816406 11.597656 26.796875 11.691406 26.71875 11.867188 C 26.640625 12.035156 26.546875 12.203125 26.429688 12.347656 C 26.210938 12.644531 25.921875 12.898438 25.621094 13.082031 C 26.785156 13.269531 27.996094 13.378906 28.949219 12.839844 C 29.113281 12.75 29.316406 12.800781 29.40625 12.953125 C 29.492188 13.097656 29.445312 13.285156 29.308594 13.378906 C 28.730469 13.785156 28.027344 13.972656 27.355469 14.039062 C 26.675781 14.109375 26.019531 14.078125 25.367188 14.023438 Z M 25.367188 14.023438 " fill-opacity="1" fill-rule="nonzero"/></g><path fill="#5ce1e6" d="M 13.695312 20.183594 C 13.445312 19.730469 13.097656 19.320312 12.664062 18.988281 C 12.375 18.757812 11.9375 18.433594 11.574219 18.253906 C 11.492188 18.214844 11.335938 18.152344 11.132812 18.09375 C 10.605469 17.945312 10.046875 17.867188 9.488281 17.867188 C 9.394531 17.867188 9.300781 17.867188 9.210938 17.875 C 9.292969 17.605469 9.34375 17.332031 9.359375 17.046875 C 9.421875 16.039062 9.253906 15.042969 8.851562 14.089844 C 8.699219 13.730469 8.503906 13.40625 8.257812 13.105469 C 8.472656 13.039062 8.679688 12.953125 8.878906 12.847656 L 8.921875 12.828125 C 10.800781 11.84375 11.988281 10.601562 12.601562 9.019531 C 12.644531 8.90625 12.683594 8.792969 12.71875 8.683594 C 13.785156 9.234375 14.804688 9.496094 15.894531 9.496094 C 16.3125 9.496094 16.75 9.457031 17.1875 9.375 C 17.578125 9.308594 17.960938 9.195312 18.324219 9.039062 C 18.320312 9.414062 18.367188 9.785156 18.464844 10.148438 C 18.707031 11.058594 19.167969 11.878906 19.828125 12.585938 C 20.113281 12.890625 20.445312 13.148438 20.816406 13.359375 C 20.578125 13.578125 20.375 13.839844 20.226562 14.140625 C 19.828125 14.933594 19.578125 15.800781 19.476562 16.71875 C 19.410156 17.296875 19.445312 17.878906 19.578125 18.441406 C 19.167969 18.335938 18.742188 18.277344 18.316406 18.277344 C 18.058594 18.277344 17.800781 18.296875 17.546875 18.339844 C 16.582031 18.484375 15.648438 18.78125 14.855469 19.191406 C 14.386719 19.4375 13.992188 19.777344 13.695312 20.183594 Z M 13.695312 20.183594 " fill-opacity="1" fill-rule="nonzero"/><path fill="#38b6ff" d="M 18.414062 14.480469 C 18.414062 14.9375 18.324219 15.378906 18.152344 15.800781 C 17.976562 16.222656 17.726562 16.597656 17.402344 16.917969 C 17.082031 17.242188 16.707031 17.492188 16.285156 17.667969 C 15.863281 17.84375 15.421875 17.929688 14.964844 17.929688 C 14.507812 17.929688 14.070312 17.84375 13.644531 17.667969 C 13.222656 17.492188 12.851562 17.242188 12.527344 16.917969 C 12.203125 16.597656 11.953125 16.222656 11.78125 15.800781 C 11.605469 15.378906 11.515625 14.9375 11.515625 14.480469 C 11.515625 14.023438 11.605469 13.585938 11.78125 13.164062 C 11.953125 12.738281 12.203125 12.367188 12.527344 12.042969 C 12.851562 11.71875 13.222656 11.472656 13.644531 11.296875 C 14.070312 11.121094 14.507812 11.035156 14.964844 11.035156 C 15.421875 11.035156 15.863281 11.121094 16.285156 11.296875 C 16.707031 11.472656 17.082031 11.71875 17.402344 12.042969 C 17.726562 12.367188 17.976562 12.738281 18.152344 13.164062 C 18.324219 13.585938 18.414062 14.023438 18.414062 14.480469 Z M 18.414062 14.480469 " fill-opacity="1" fill-rule="nonzero"/><path fill="#0097b2" d="M 17.035156 16.207031 C 17.035156 16.433594 16.992188 16.652344 16.902344 16.867188 C 16.816406 17.078125 16.691406 17.261719 16.53125 17.425781 C 16.367188 17.585938 16.179688 17.710938 15.96875 17.796875 C 15.757812 17.886719 15.539062 17.929688 15.308594 17.929688 C 15.082031 17.929688 14.863281 17.886719 14.652344 17.796875 C 14.4375 17.710938 14.253906 17.585938 14.089844 17.425781 C 13.929688 17.261719 13.804688 17.078125 13.71875 16.867188 C 13.628906 16.652344 13.585938 16.433594 13.585938 16.207031 C 13.585938 15.976562 13.628906 15.757812 13.71875 15.546875 C 13.804688 15.335938 13.929688 15.148438 14.089844 14.988281 C 14.253906 14.824219 14.4375 14.699219 14.652344 14.613281 C 14.863281 14.527344 15.082031 14.480469 15.308594 14.480469 C 15.539062 14.480469 15.757812 14.527344 15.96875 14.613281 C 16.179688 14.699219 16.367188 14.824219 16.53125 14.988281 C 16.691406 15.148438 16.816406 15.335938 16.902344 15.546875 C 16.992188 15.757812 17.035156 15.976562 17.035156 16.207031 Z M 17.035156 16.207031 " fill-opacity="1" fill-rule="nonzero"/></svg>